<svg width="90" height="40" viewBox="0 0 90 40" fill="none" xmlns="http://www.w3.org/2000/svg">
<g clip-path="url(#clip0_2100_2)">
<path d="M51.5327 3.02301C50.6399 2.08054 49.5744 1.31831 48.3941 0.777738C44.9408 -0.760506 40.621 0.0311959 37.9622 2.72665C35.8651 4.75883 34.7983 7.82685 35.2343 10.7255C35.4931 12.7436 36.4068 14.6211 37.8352 16.0699C39.1975 17.4655 40.9577 18.4062 42.8749 18.7634C44.7922 19.1206 46.773 18.8768 48.5465 18.0653C51.7923 16.5963 54.0503 13.174 54.0503 9.59795C54.0966 7.16255 53.1937 4.80465 51.5327 3.02301V3.02301ZM53.2374 11.067C52.8635 13.2164 51.606 15.1483 49.9069 16.4876C49.5668 16.695 49.2366 16.911 48.9078 17.1325L48.2642 17.4444C46.2335 18.4139 43.8301 18.493 41.7091 17.769C41.019 17.5121 40.3811 17.1438 39.7333 16.8023C39.4247 16.5558 39.1204 16.307 38.8203 16.0558L38.4745 15.7735C37.8284 15.0935 37.2664 14.3383 36.8008 13.524C35.1666 10.4038 35.6041 6.34223 37.9622 3.71028C38.4055 3.23043 38.8838 2.78419 39.3932 2.37525C39.5598 2.27082 39.7249 2.16357 39.8886 2.05349C40.9749 1.36335 42.1988 0.918551 43.4748 0.750126C44.7508 0.581701 46.0481 0.693708 47.2764 1.07833C47.5488 1.19687 47.8197 1.30131 48.0935 1.41138C48.3179 1.51864 48.5408 1.61742 48.7666 1.72044C50.1592 2.5074 51.3319 3.63119 52.1776 4.98886C53.2345 6.82628 53.6097 8.97748 53.2374 11.0642V11.067Z" fill="black"/>
<path d="M47.0986 6.04883C46.9758 6.0573 46.8319 6.04883 46.6992 6.04883H46.417L45.5081 7.65199C45.7904 8.21648 46.0867 8.7584 46.4141 9.29043C46.7415 8.75416 47.0718 8.21648 47.3808 7.66892C47.9453 7.63647 48.5225 7.63929 49.0912 7.65058L46.3365 12.3796C45.8285 11.3156 45.1581 10.3418 44.619 9.29184C44.015 10.3037 43.3941 11.3071 42.8508 12.3528L40.041 7.58143C40.5942 7.56732 41.1488 7.57014 41.702 7.57155C42.0807 8.11699 42.4243 8.68592 42.7308 9.27491L44.1717 6.88428C44.3326 6.61332 44.4949 6.34378 44.6614 6.07564C42.1818 6.05165 39.7051 6.07564 37.2256 6.06294C37.9735 7.33305 38.689 8.61868 39.4412 9.88315C40.5363 11.8095 41.654 13.7245 42.7647 15.6438C43.3645 14.5938 43.9515 13.527 44.6176 12.5236C45.1962 13.5848 45.8454 14.6037 46.4325 15.6593C47.2961 14.0731 48.2374 12.5334 49.1336 10.9684C50.0805 9.32853 50.9893 7.66469 51.9941 6.05871C50.3628 6.04459 48.73 6.05871 47.0986 6.04883Z" fill="black"/>
<path d="M76.4071 30.8499C76.7029 30.6776 77.0245 30.5541 77.3597 30.4844C77.3597 30.8245 77.3597 31.1547 77.3597 31.4835C77.3639 31.7622 77.3498 32.0408 77.3173 32.3176C77.2915 32.492 77.2321 32.6597 77.1423 32.8115C77.0581 32.9465 76.9256 33.0445 76.7718 33.0857C76.6181 33.1268 76.4544 33.108 76.3139 33.0331C76.2129 32.9665 76.1322 32.8732 76.0811 32.7635C76.0324 32.6662 76.0064 32.5591 76.0049 32.4502C76.0049 32.1242 76.0049 31.8025 76.0218 31.4835C76.0282 31.3542 76.0668 31.2285 76.1341 31.1178C76.2013 31.0072 76.2952 30.9151 76.4071 30.8499V30.8499Z" fill="black"/>
<path d="M68.2684 23.3477L68.1667 23.009C67.9946 22.429 67.8591 21.8377 67.701 21.252C67.6008 20.8795 67.4484 20.2797 67.3496 19.9043H62.0222L61.7146 21.2323C61.7626 21.2492 66.2842 21.252 66.2842 21.252C66.7075 22.9187 67.2847 25.3756 67.3976 25.799V25.8103C67.4295 25.9063 67.4457 26.0069 67.4456 26.1081C67.4473 26.2399 67.4226 26.3708 67.3729 26.493C67.3232 26.6152 67.2496 26.7261 67.1563 26.8194C67.0631 26.9126 66.9521 26.9863 66.8299 27.036C66.7078 27.0856 66.5769 27.1103 66.445 27.1086H65.515C65.5124 27.1098 65.5095 27.1104 65.5066 27.1104C65.5037 27.1104 65.5008 27.1098 65.4981 27.1086H59.9477C59.8331 27.1083 59.7195 27.1305 59.6134 27.1741C59.5074 27.2177 59.411 27.2817 59.3297 27.3626C59.2484 27.4435 59.1839 27.5396 59.1398 27.6454C59.0957 27.7512 59.0729 27.8647 59.0728 27.9794C59.0731 28.2104 59.1652 28.4319 59.3287 28.5952C59.4922 28.7584 59.7138 28.8501 59.9449 28.8501H62.9409C62.9551 28.8501 62.9663 28.8501 62.9833 28.8501C64.5554 28.8501 65.8058 28.8501 66.2418 28.8501H67.4089C67.6685 28.8578 67.9149 28.9663 68.0958 29.1525C68.2768 29.3388 68.3782 29.5882 68.3784 29.8478C68.3797 29.9809 68.3547 30.113 68.3047 30.2364C68.2548 30.3597 68.1809 30.472 68.0874 30.5667C67.9939 30.6614 67.8825 30.7367 67.7598 30.7882C67.637 30.8397 67.5053 30.8664 67.3722 30.8668H65.5263C65.103 30.8668 64.8207 30.8668 64.2901 30.8668H63.8441C63.7741 30.8674 63.7044 30.8769 63.6367 30.895C63.5343 30.9154 63.4371 30.9561 63.3508 31.0147C63.2645 31.0734 63.1909 31.1488 63.1343 31.2365L63.1173 31.2619C63.1097 31.2735 63.1031 31.2858 63.0976 31.2986C63.0494 31.3763 63.015 31.4618 62.996 31.5512V31.5512C62.996 31.5625 62.996 31.5738 62.996 31.5851C62.9861 31.6315 62.9809 31.6788 62.9805 31.7262V31.7431C62.9803 31.7954 62.9864 31.8476 62.9988 31.8984C62.9972 31.9029 62.9972 31.9079 62.9988 31.9125C63.0391 32.1245 63.1606 32.3124 63.3375 32.436C63.4859 32.5455 63.6654 32.6048 63.8498 32.6054H68.274C68.4055 32.6052 68.5358 32.631 68.6573 32.6812C68.7789 32.7314 68.8894 32.805 68.9824 32.898C69.0755 32.9909 69.1493 33.1012 69.1997 33.2227C69.25 33.3442 69.276 33.4744 69.276 33.606C69.2763 33.7378 69.2507 33.8684 69.2005 33.9903C69.1503 34.1122 69.0766 34.2229 68.9835 34.3163C68.8904 34.4096 68.7798 34.4837 68.6581 34.5342C68.5363 34.5847 68.4058 34.6108 68.274 34.6108H64.6584C64.3465 34.6108 63.9965 34.6108 63.5802 34.6108C63.5012 34.6108 63.4194 34.6192 63.3375 34.6192H61.7851C61.5551 34.6196 61.3345 34.7112 61.1719 34.8738C61.0092 35.0365 60.9176 35.2571 60.9172 35.4871C60.9172 35.5182 60.9172 35.5549 60.9172 35.5859C60.9415 35.7984 61.0431 35.9945 61.2026 36.1368C61.3622 36.2792 61.5685 36.3579 61.7823 36.3579H63.2232C66.486 36.3579 78.4236 36.3579 83.6607 36.3579H85.309C86.0922 36.3579 85.8551 36.3579 86.1826 36.3579L89.1899 23.3477H68.2684ZM73.0186 27.8552C72.9311 27.4897 72.6742 27.3486 72.3129 27.4502C72.2347 27.4666 72.1633 27.5062 72.1079 27.5639C72.0525 27.6215 72.0158 27.6945 72.0025 27.7733C71.9444 27.9731 71.9112 28.1793 71.9037 28.3872C71.8952 29.6475 71.8952 30.9176 71.9037 32.1778C71.9072 32.3736 71.9386 32.568 71.9968 32.755C72.0208 32.8716 72.0875 32.9749 72.1839 33.0447C72.2803 33.1144 72.3994 33.1455 72.5176 33.1318C72.6328 33.1412 72.7474 33.1072 72.8388 33.0364C72.9302 32.9657 72.9918 32.8633 73.0115 32.7493C73.0563 32.5675 73.0837 32.3818 73.0934 32.1947C73.1075 31.9972 73.0934 31.7939 73.0934 31.5823H74.0728C74.0728 31.5845 74.0736 31.5867 74.0752 31.5882C74.0768 31.5898 74.079 31.5907 74.0812 31.5907C74.1131 32.0711 74.0722 32.5536 73.9599 33.0217C73.8847 33.2926 73.7278 33.5337 73.5106 33.7123C73.2934 33.8908 73.0265 33.9981 72.7462 34.0195C72.5037 34.0363 72.26 34.0192 72.0222 33.9686C71.4789 33.8529 71.16 33.4818 71.0344 32.9582C70.9454 32.6291 70.8979 32.2901 70.8932 31.9492C70.8735 30.799 70.8791 29.6475 70.8848 28.5001C70.8826 28.1634 70.94 27.829 71.0541 27.5123C71.3081 26.8208 71.8317 26.4694 72.5754 26.4835C73.3192 26.4976 73.7792 26.8716 73.9726 27.587C74.0786 28.0758 74.1175 28.5767 74.0883 29.0759C74.0883 29.0759 74.0883 29.0872 74.0742 29.0999H73.1004V28.9432C73.1182 28.5786 73.0907 28.2131 73.0186 27.8552V27.8552ZM78.3686 33.9122C78.1343 33.9122 77.917 33.9122 77.6897 33.9122C77.6672 33.9122 77.6361 33.8727 77.6277 33.8473C77.5881 33.7245 77.5543 33.6003 77.5176 33.4705C77.5176 33.4451 77.495 33.4169 77.4837 33.383C77.461 33.3973 77.4402 33.4144 77.4216 33.4338C77.1394 33.867 76.716 34.011 76.2305 33.9983C75.5701 33.9983 75.1876 33.6723 75.0634 32.9991C74.952 32.4148 74.9491 31.8149 75.055 31.2294C75.0919 30.9955 75.185 30.7741 75.3263 30.584C75.4677 30.394 75.653 30.2412 75.8664 30.1386C76.2908 29.9253 76.7376 29.7601 77.1986 29.646C77.2472 29.634 77.2901 29.6055 77.3199 29.5653C77.3498 29.5251 77.3648 29.4759 77.3623 29.4259C77.3426 28.9842 77.3398 28.5439 77.3256 28.1022C77.3197 28.0394 77.3093 27.9772 77.2946 27.9159C77.1874 27.4798 76.8106 27.2963 76.3956 27.4798C76.3213 27.5095 76.2555 27.5571 76.204 27.6185C76.1526 27.6798 76.1171 27.7528 76.1007 27.8312C76.053 28.0493 76.021 28.2704 76.0047 28.4931C75.9906 28.6935 76.0047 28.891 76.0047 29.1069H74.9929C74.9759 28.4818 74.9618 27.8651 75.2582 27.2963C75.3662 27.0979 75.5169 26.926 75.6994 26.793C75.882 26.66 76.0918 26.5692 76.3138 26.5272C76.6415 26.461 76.9803 26.4745 77.3017 26.5667C77.8563 26.7417 78.1484 27.1637 78.2599 27.6957C78.3264 28.0174 78.3595 28.3452 78.3587 28.6737C78.3587 30.3785 78.3587 32.0776 78.3587 33.7767L78.3686 33.9122ZM81.963 27.5532C81.9319 27.5532 81.898 27.5532 81.8642 27.5532H81.5467C81.3238 27.5528 81.1085 27.634 80.9414 27.7814C80.7742 27.9288 80.6668 28.1322 80.6392 28.3534C80.6198 28.5021 80.6104 28.6521 80.611 28.8021V33.8981H79.5935V26.602C79.8108 26.602 80.0253 26.602 80.2328 26.602C80.2638 26.602 80.2949 26.6415 80.3118 26.6726C80.3654 26.7897 80.4247 26.9167 80.4755 27.0409C80.5094 27.1115 80.5461 27.1143 80.5941 27.055C80.9695 26.6528 81.4408 26.5766 81.963 26.602V27.5532ZM85.1665 27.5532H84.0996V27.6774C84.0911 29.2297 84.0864 30.7821 84.0855 32.3344C84.085 32.455 84.0978 32.5752 84.1236 32.6929C84.1376 32.7592 84.1727 32.8191 84.2235 32.8639C84.2744 32.9086 84.3383 32.9358 84.4058 32.9413C84.6288 32.9526 84.8546 32.9526 85.0818 32.9582H85.1608V33.9037H84.9886C84.657 33.8953 84.3211 33.9037 84.0008 33.884C83.456 33.8332 83.1809 33.5552 83.1103 33.0132C83.0844 32.7841 83.0712 32.5537 83.0708 32.3232C83.0708 30.7849 83.0708 29.2382 83.0708 27.6999V27.5588H82.3384V26.602H83.068C83.068 26.5484 83.068 26.5089 83.068 26.4694C83.068 26.0347 83.068 25.5986 83.068 25.1597C83.0694 25.1136 83.0874 25.0695 83.1188 25.0355C83.4335 24.8831 83.7411 24.7364 84.0544 24.5868C84.0675 24.5849 84.0808 24.5849 84.0939 24.5868V26.6048H85.1608L85.1665 27.5532Z" fill="black"/>
<path d="M61.685 32.6067C61.8274 32.6017 61.9658 32.5582 62.0855 32.481C62.2053 32.4037 62.3019 32.2955 62.3652 32.1678C62.4594 32.0103 62.4998 31.8265 62.4805 31.644C62.4612 31.4615 62.383 31.2902 62.2579 31.1559C62.2285 31.1237 62.1969 31.0935 62.1634 31.0656L62.1422 31.0487C61.9913 30.93 61.805 30.8654 61.613 30.8652H60.8622C60.6844 30.865 60.5109 30.9197 60.3655 31.0219C60.2497 31.0961 60.1547 31.1985 60.0893 31.3194C60.0239 31.4404 59.9903 31.5759 59.9915 31.7134V31.7346C59.9915 31.7571 59.9915 31.7783 59.9915 31.8009C59.9915 31.8235 59.9915 31.8743 60.0028 31.9081C60.0028 31.9081 60.0028 31.9081 60.0028 31.9152C60.034 32.1059 60.1309 32.2797 60.2768 32.4065C60.4227 32.5333 60.6083 32.6051 60.8015 32.6095C61.0958 32.6272 61.3908 32.6263 61.685 32.6067V32.6067Z" fill="black"/>
<path d="M7.41321 23.8486L6.50861 33.445L5.04939 23.8486H3.84843L2.42591 33.445L1.36043 23.8486H0L1.65114 36.3705H3.07367L4.4849 27.1298L5.82698 36.3705H7.28338L8.76235 23.85L7.41321 23.8486Z" fill="black"/>
<path d="M13.7143 23.8486V29.0998H11.7132V23.8486H10.2356V36.3705H11.7132V30.3022H13.7143V36.3705H15.1862V23.8486H13.7143Z" fill="black"/>
<path d="M21.7668 25.0809C21.4521 24.1622 20.738 23.7021 19.6175 23.7021C18.8512 23.7021 18.2627 23.911 17.8619 24.3287C17.3501 24.8603 17.0937 25.8369 17.0928 27.2585V32.7778C17.0928 34.0789 17.2809 35.0273 17.6573 35.6228C18.0298 36.2226 18.6719 36.519 19.585 36.519C20.4981 36.519 21.1374 36.2226 21.5015 35.6285C21.8656 35.0344 22.0476 34.0761 22.0476 32.7778V27.2556C22.0448 26.3515 21.9512 25.6266 21.7668 25.0809ZM20.5701 32.7919C20.5701 33.736 20.5051 34.381 20.3725 34.7323C20.2398 35.0837 19.9717 35.2545 19.5695 35.2545C19.1673 35.2545 18.8992 35.0823 18.7637 34.738C18.6282 34.3937 18.5661 33.7501 18.5661 32.7919V27.1625C18.5661 26.3821 18.6423 25.819 18.7947 25.4775C18.8578 25.3174 18.9701 25.1815 19.1155 25.0894C19.2608 24.9973 19.4317 24.9538 19.6034 24.9652C19.9943 24.9652 20.2511 25.1317 20.3809 25.4662C20.5108 25.8007 20.5701 26.368 20.5701 27.171V32.7919Z" fill="black"/>
<path d="M25.4219 35.1498V23.8486H23.95V36.3705H27.7349V35.1512L25.4219 35.1498Z" fill="black"/>
<path d="M30.4826 35.1441V30.5844H32.6319V29.3609H30.4826V25.0722H32.7533V23.8486H29.0164V36.3705H32.7858V35.1456L30.4826 35.1441Z" fill="black"/>
<path d="M37.5867 29.5824L36.7399 28.6778C36.7174 28.6496 36.6016 28.5282 36.3928 28.3137C36.1918 28.1074 36.0152 27.8787 35.8664 27.6321C35.7253 27.3964 35.6519 27.021 35.6519 26.5031C35.6519 25.9852 35.7309 25.6042 35.8862 25.3445C35.9658 25.2146 36.0798 25.1091 36.2154 25.0396C36.3511 24.9702 36.5033 24.9394 36.6553 24.9508C36.8199 24.9464 36.9815 24.9959 37.1153 25.0919C37.2678 25.241 37.3725 25.4321 37.4159 25.6409C37.495 25.9146 37.5373 26.4523 37.5373 27.2468V28.0936H38.9485V27.3555C38.9581 26.7194 38.9109 26.0837 38.8074 25.456C38.5863 24.2903 37.8699 23.707 36.6581 23.7061C35.7173 23.7061 35.078 23.9728 34.7402 24.5062C34.4025 25.0397 34.236 25.7594 34.2407 26.6654C34.234 27.028 34.2768 27.3897 34.3677 27.7408C34.5427 28.3711 34.9952 29.0607 35.7253 29.8096L36.5424 30.6267C37.3054 31.3907 37.6878 32.2064 37.6897 33.0738C37.6897 33.5057 37.6784 33.8966 37.6558 34.2409C37.6589 34.5166 37.576 34.7864 37.4188 35.0129C37.2776 35.1794 37.0307 35.2641 36.6722 35.2641C36.5063 35.2715 36.3428 35.2225 36.2082 35.1251C36.0737 35.0278 35.9761 34.8877 35.9313 34.7278C35.7987 34.3707 35.7337 33.7315 35.7337 32.8184V31.5483H34.2929V32.8339C34.2929 33.739 34.3804 34.4714 34.5554 35.0312C34.8621 36.0181 35.5804 36.5116 36.7103 36.5116C37.6488 36.5116 38.2881 36.2293 38.6211 35.655C38.9542 35.0806 39.1221 34.2578 39.1221 33.1783C39.1221 31.8517 38.6103 30.6531 37.5867 29.5824Z" fill="black"/>
<path d="M43.8187 23.8486H42.0462L40.1453 36.3705H41.548L41.8768 33.9714H44.1433L44.5003 36.3705H45.889L43.8187 23.8486ZM42.0405 32.7832L42.9508 26.1673H42.9706L43.9584 32.7832H42.0405Z" fill="black"/>
<path d="M48.854 35.1498V23.8486H47.3821V36.3705H51.1642V35.1512L48.854 35.1498Z" fill="black"/>
<path d="M54.3945 35.1441V30.5844H56.5424V29.3609H54.3945V25.0722H56.6609V23.8486H52.9211V36.3705H56.692V35.1456L54.3945 35.1441Z" fill="black"/>
<path d="M82.141 36.7726C83.0837 36.7726 83.7455 37.4302 83.7512 38.3729C83.7544 38.5858 83.7151 38.7972 83.6357 38.9948C83.5563 39.1923 83.4383 39.3721 83.2887 39.5236C83.1391 39.6751 82.9608 39.7952 82.7642 39.877C82.5676 39.9588 82.3567 40.0007 82.1438 40.0001C81.7263 39.9906 81.328 39.8233 81.0289 39.5318C80.7299 39.2404 80.5524 38.8464 80.5322 38.4294C80.5231 38.2134 80.5582 37.9979 80.6352 37.796C80.7123 37.5941 80.8296 37.41 80.9802 37.2549C81.1307 37.0999 81.3113 36.9772 81.5109 36.8942C81.7105 36.8113 81.9249 36.7699 82.141 36.7726V36.7726Z" fill="black"/>
<path d="M72.3202 38.346C72.3178 38.1324 72.3596 37.9205 72.4428 37.7238C72.5261 37.527 72.649 37.3496 72.804 37.2025C72.959 37.0555 73.1427 36.942 73.3435 36.8693C73.5444 36.7965 73.7581 36.7659 73.9713 36.7795C74.1845 36.7816 74.395 36.8265 74.5904 36.9116C74.7859 36.9966 74.9622 37.1201 75.109 37.2746C75.2558 37.4292 75.37 37.6117 75.4449 37.8112C75.5198 38.0108 75.5537 38.2234 75.5448 38.4363C75.5243 38.8657 75.3368 39.27 75.0222 39.563C74.7076 39.8559 74.291 40.0143 73.8612 40.0042C73.4376 39.9869 73.0379 39.803 72.7493 39.4924C72.4607 39.1818 72.3064 38.7698 72.3202 38.346V38.346Z" fill="black"/>
</g>
<defs>
<clipPath id="clip0_2100_2">
<rect width="89.19" height="40" fill="white"/>
</clipPath>
</defs>
</svg>
